HIERARCHY
ROOT Hips
{
	OFFSET 0.000000 0.000000 0.000000 
	CHANNELS 6 Xposition Yposition Zposition Yrotation Zrotation Xrotation 
	JOINT Lumbar
	{
		OFFSET 0.000000 0.000000 0.000000 
		CHANNELS 3 Zrotation Xrotation Yrotation
		JOINT Neck
		{
			OFFSET 0.000000 0.445665 0.000000 
			CHANNELS 3 Zrotation Xrotation Yrotation
			End Site
			{
				OFFSET 0.000000 0.227535 0.000000 
			}
		}
		JOINT RightShoulder
		{
			OFFSET 0.019635 0.377685 0.194865 
			CHANNELS 3 Zrotation Xrotation Yrotation
			JOINT RightElbow
			{
				OFFSET 0.000000 -0.243375 0.000000 
				CHANNELS 2 Zrotation Yrotation
				JOINT RightWrist
				{
					OFFSET 0.000000 -0.264825 0.000000 
					CHANNELS 2 Zrotation Xrotation
					End Site
					{
						OFFSET 0.006600 -0.176220 0.000990 
					}
				}
			}
		}
		JOINT LeftShoulder
		{
			OFFSET 0.019635 0.377685 -0.194865 
			CHANNELS 3 Zrotation Xrotation Yrotation
			JOINT LeftElbow
			{
				OFFSET 0.000000 -0.243375 0.000000 
				CHANNELS 2 Zrotation Yrotation
				JOINT LeftWrist
				{
					OFFSET 0.000000 -0.264825 0.000000 
					CHANNELS 2 Zrotation Xrotation
					End Site
					{
						OFFSET 0.006600 -0.176220 -0.000990 
					}
				}
			}
		}
	}
	JOINT RightHip
	{
		OFFSET 0.052140 -0.069960 0.075570 
		CHANNELS 3 Zrotation Xrotation Yrotation
		JOINT RightKnee
		{
			OFFSET 0.000000 -0.402270 0.000000 
			CHANNELS 1 Zrotation
			JOINT RightAnkle
			{
				OFFSET 0.000000 -0.404085 0.000000 
				CHANNELS 3 Zrotation Xrotation Yrotation
				End Site
				{
					OFFSET 0.204105 -0.089430 0.008415 
				}
			}
		}
	}
	JOINT LeftHip
	{
		OFFSET 0.052140 -0.069960 -0.075570 
		CHANNELS 3 Zrotation Xrotation Yrotation
		JOINT LeftKnee
		{
			OFFSET 0.000000 -0.402270 0.000000 
			CHANNELS 1 Zrotation
			JOINT LeftAnkle
			{
				OFFSET 0.000000 -0.404085 0.000000 
				CHANNELS 3 Zrotation Xrotation Yrotation
				End Site
				{
					OFFSET 0.204105 -0.089430 -0.008415 
				}
			}
		}
	}
}
MOTION
Frames: 25
Frame Time: 0.02
-0.00203 -0.00033 0.00091 19.01623 -33.37416 -3.90338 53.70549 1.47153 2.72625 -2.44963 -9.36792 -0.43304 134.17162 -79.84602 -82.48669 16.29372 84.62826 -5.35218 -7.85247 133.74073 72.45873 90.03221 7.73403 -106.15679 -11.03232 8.02508 50.94211 0.60963 -4.55124 -20.23609 -8.21793 -5.29116 -3.59226 54.1009 2.3064 4.82003 -23.96988 -8.9656 4.66369 3.31626
-0.00172 -0.00029 0.00074 18.99338 -33.36585 -3.89035 53.77703 1.47093 2.70675 -2.4938 -9.36976 -0.43336 134.45083 -79.86124 -82.16294 16.3425 84.63465 -5.33137 -7.87897 134.85257 72.51118 90.02588 7.88711 -102.38731 -9.95519 8.12841 50.88414 0.48686 -5.19714 -20.20876 -8.16987 -5.23966 -3.55194 54.06964 2.22804 4.49953 -23.97052 -9.00496 4.70974 3.33767
-0.00141 -0.00025 0.00056 18.9706 -33.35753 -3.87734 53.84839 1.47036 2.68732 -2.53796 -9.37157 -0.43369 134.73018 -79.87644 -81.839 16.39111 84.64104 -5.31066 -7.90537 135.96174 72.56352 90.01909 8.03975 -98.62943 -8.88123 8.23141 50.82626 0.36452 -5.84062 -20.18147 -8.12198 -5.18834 -3.51176 54.03838 2.14995 4.18033 -23.97115 -9.04416 4.75563 3.359
-0.0011 -0.00022 0.00038 18.94781 -33.34924 -3.86436 53.91971 1.46976 2.66788 -2.58202 -9.37341 -0.43401 135.00873 -79.89162 -81.51601 16.43973 84.64742 -5.28993 -7.93178 137.07031 72.61581 90.01268 8.19237 -94.87156 -7.80738 8.33442 50.76845 0.24214 -6.48446 -20.15422 -8.07406 -5.137 -3.47156 54.0072 2.07185 3.86089 -23.97178 -9.08339 4.80153 3.38035
-0.00079 -0.00018 0.00021 18.92497 -33.34099 -3.85136 53.99119 1.46913 2.64838 -2.62606 -9.37527 -0.43433 135.28664 -79.90679 -81.19377 16.48855 84.65381 -5.26908 -7.9583 138.18117 72.6682 90.00697 8.34543 -91.10209 -6.73042 8.43778 50.71058 0.11933 -7.13088 -20.12692 -8.02595 -5.08548 -3.43121 53.97606 1.99345 3.53998 -23.97241 -9.1228 4.8476 3.40178
-0.00048 -0.00014 3e-05 18.90231 -33.33252 -3.83831 54.0623 1.46867 2.62911 -2.67047 -9.37697 -0.43465 135.56894 -79.92204 -80.86635 16.53671 84.66019 -5.24864 -7.98445 139.28669 72.72044 89.99793 8.49719 -87.36878 -5.66284 8.54001 50.65269 -0.00203 -7.76815 -20.09967 -7.97854 -5.03458 -3.39141 53.94454 1.91601 3.22436 -23.97307 -9.16154 4.89311 3.42291
-0.00017 -0.0001 -0.00015 18.8793 -33.32449 -3.8254 54.13406 1.46787 2.60939 -2.71406 -9.37901 -0.43498 135.84238 -79.93713 -80.54939 16.58613 84.66657 -5.22743 -8.01132 140.4019 72.77292 89.99543 8.65138 -83.56706 -4.57759 8.64441 50.59491 -0.12616 -8.42308 -20.07236 -7.92978 -4.98249 -3.35054 53.91382 1.83677 2.89861 -23.97366 -9.20158 4.93969 3.44463
0.00014 -6e-05 -0.00032 18.85662 -33.31606 -3.81236 54.20525 1.46738 2.59007 -2.75845 -9.3807 -0.4353 136.12346 -79.95236 -80.22336 16.6344 84.67296 -5.20687 -8.03751 141.50788 72.82517 89.98722 8.80333 -79.828 -3.50859 8.74677 50.53701 -0.24776 -9.06183 -20.04509 -7.88226 -4.9315 -3.31065 53.88236 1.75912 2.58189 -23.97431 -9.24045 4.98531 3.46581
0.00045 -2e-05 -0.00051 18.8343 -33.30711 -3.79915 54.27566 1.46728 2.57128 -2.80369 -9.38212 -0.43561 136.4163 -79.96781 -79.88365 16.68124 84.67936 -5.18735 -8.06295 142.60436 72.8772 89.97068 8.95264 -76.16562 -2.45914 8.84684 50.47901 -0.36622 -9.68057 -20.01793 -7.83625 -4.88182 -3.27198 53.84998 1.68366 2.27737 -23.97505 -9.27777 5.02968 3.48628
0.00075 1e-05 -0.00066 18.8098 -33.30105 -3.78687 54.35032 1.46497 2.54955 -2.84365 -9.38559 -0.43595 136.64881 -79.98216 -79.6148 16.73622 84.68569 -5.16257 -8.09294 143.76092 72.93068 89.99801 9.11743 -72.06224 -1.29623 8.9607 50.42169 -0.50262 -10.41378 -19.99033 -7.78154 -4.82448 -3.22634 53.82282 1.59635 1.90614 -23.97532 -9.32366 5.08099 3.51069
0.00108 5e-05 -0.00088 18.78997 -33.28897 -3.77266 54.41614 1.46732 2.53399 -2.89498 -9.38442 -0.43625 137.00377 -79.99871 -79.20162 16.77411 84.69216 -5.14845 -8.11317 144.78707 72.98097 89.93542 9.24935 -68.88945 -0.37341 9.04507 50.36288 -0.60122 -10.90588 -19.96352 -7.74518 -4.78337 -3.19539 53.78471 1.53357 1.67343 -23.97654 -9.3517 5.11782 3.52689
0.0015 0.00011 -0.00126 18.78243 -33.25966 -3.75292 54.45637 1.4827 2.53587 -2.97596 -9.3728 -0.43636 137.73569 -80.02254 -78.34636 16.7638 84.69907 -5.16741 -8.10759 145.48168 73.02384 89.60169 9.29183 -68.29342 -0.10989 9.05054 50.30051 -0.59495 -10.72664 -19.93998 -7.75956 -4.78668 -3.20514 53.7159 1.54276 1.84394 -23.98081 -9.32823 5.11309 3.5193
0.00195 0.00017 -0.00171 18.77965 -33.22444 -3.73131 54.48793 1.50272 2.54386 -3.06863 -9.35612 -0.43643 138.58124 -80.04847 -77.3554 16.73639 84.70608 -5.1964 -8.09189 146.03999 73.06338 89.18213 9.30109 -68.6277 -0.08739 9.02581 50.23654 -0.55095 -10.30718 -19.91704 -7.79227 -4.80628 -3.22955 53.63623 1.57589 2.15005 -23.98596 -9.28721 5.0941 3.50364
0.00239 0.00022 -0.00212 18.77506 -33.19239 -3.71074 54.52437 1.52046 2.54875 -3.15697 -9.34028 -0.43655 139.3503 -80.07249 -76.45562 16.71793 84.71305 -5.2182 -8.08039 146.64411 73.10348 88.81788 9.32513 -68.52088 0.04581 9.01388 50.17292 -0.52495 -10.00391 -19.89307 -7.81634 -4.81852 -3.247 53.56197 1.5948 2.37801 -23.99044 -9.25598 5.08294 3.49253
0.00282 0.00028 -0.00254 18.7691 -33.15829 -3.68935 54.55697 1.53893 2.55501 -3.24123 -9.33057 -0.43655 140.23169 -80.10007 -75.42795 16.69528 84.72013 -5.25089 -8.07116 147.31806 73.1472 88.38487 9.35071 -68.4925 0.17377 9.00668 50.11085 -0.49522 -9.67022 -19.87223 -7.84183 -4.83067 -3.26579 53.48565 1.62716 2.67276 -23.99606 -9.21742 5.06631 3.47785
0.00327 0.00034 -0.00297 18.767 -33.12707 -3.66921 54.5953 1.55698 2.55987 -3.33669 -9.30694 -0.43677 140.89705 -80.12136 -74.6383 16.67628 84.72681 -5.26358 -8.05404 147.81174 73.1831 88.07442 9.36487 -68.52221 0.25528 8.98133 50.04526 -0.46439 -9.34332 -19.84513 -7.86863 -4.84682 -3.2852 53.41108 1.63807 2.86461 -23.99954 -9.18952 5.05736 3.46847
0.00379 0.00042 -0.00343 18.77546 -33.10505 -3.65304 54.65336 1.5728 2.55932 -3.46114 -9.24522 -0.43766 140.99146 -80.12005 -74.50823 16.67782 84.73325 -5.21941 -8.02458 147.85565 73.19478 88.12533 9.358 -68.47334 0.26978 8.92167 49.96949 -0.43932 -9.09199 -19.7997 -7.89505 -4.87046 -3.30303 53.34377 1.57597 2.70336 -23.99654 -9.19905 5.07618 3.47764
0.00433 0.00051 -0.0039 18.78748 -33.08613 -3.63813 54.71715 1.58797 2.5572 -3.59653 -9.16954 -0.43876 140.83875 -80.11367 -74.62881 16.6806 84.73861 -5.15692 -7.98643 147.71514 73.19997 88.30134 9.33985 -68.45278 0.24512 8.84222 49.89042 -0.4146 -8.85638 -19.74819 -7.92201 -4.89747 -3.32091 53.27865 1.49285 2.44032 -23.99143 -9.21923 5.10266 3.49207
0.00486 0.0006 -0.00436 18.79715 -33.06595 -3.62266 54.77719 1.6035 2.55575 -3.72596 -9.10124 -0.43974 140.78413 -80.11214 -74.65415 16.68109 84.7445 -5.09936 -7.9475 147.65587 73.20957 88.41991 9.32592 -68.42622 0.23744 8.76757 49.81338 -0.38993 -8.6148 -19.69998 -7.94842 -4.92264 -3.33855 53.21267 1.42463 2.24757 -23.98751 -9.23208 5.12361 3.50279
0.0054 0.00069 -0.00484 18.80998 -33.04504 -3.60725 54.84181 1.61921 2.55448 -3.85887 -9.02967 -0.44082 140.85819 -80.09808 -74.59343 16.69592 84.75226 -5.04702 -7.92749 147.62331 73.21032 88.54152 9.31665 -68.40256 0.22632 8.71368 49.73393 -0.36282 -8.35931 -19.64929 -7.9769 -4.94971 -3.35762 53.14571 1.33497 1.9589 -23.9826 -9.25477 5.15271 3.51874
0.00592 0.00077 -0.00529 18.8171 -33.02636 -3.59182 54.89832 1.63397 2.55268 -3.98834 -8.96006 -0.44175 140.52292 -80.11124 -74.77638 16.67182 84.7533 -4.99122 -7.86703 147.46723 73.23121 88.68317 9.29291 -68.36819 0.21428 8.60709 49.65889 -0.34167 -8.14035 -19.60263 -8.00081 -4.97336 -3.37351 53.08147 1.2843 1.84306 -23.97928 -9.25982 5.16686 3.52521
0.00643 0.00084 -0.00568 18.80659 -33.0142 -3.57785 54.93148 1.6491 2.54751 -4.09372 -8.91248 -0.44217 139.82733 -80.17499 -75.53145 16.62611 84.76178 -4.82594 -7.68903 147.21476 73.27916 88.86933 9.25836 -68.28914 0.22276 8.40729 49.5959 -0.33455 -8.01354 -19.5658 -8.01295 -4.98728 -3.3809 53.02433 1.34938 2.23721 -23.98046 -9.21279 5.13768 3.50394
0.00693 0.00089 -0.00604 18.7903 -33.00413 -3.56343 54.95621 1.66271 2.54242 -4.19714 -8.86464 -0.44242 138.60671 -80.26714 -76.52169 16.52818 84.76133 -4.6755 -7.47198 146.79255 73.35125 89.05509 9.20816 -68.19698 0.22754 8.14872 49.53781 -0.33406 -7.92501 -19.53378 -8.02018 -4.99748 -3.38497 52.97 1.45367 2.80639 -23.9834 -9.1479 5.09333 3.47307
0.00742 0.00095 -0.00641 18.77738 -32.99225 -3.54808 54.98457 1.67515 2.53858 -4.3096 -8.80865 -0.44277 137.14607 -80.36826 -77.4428 16.39385 84.74475 -4.58889 -7.27833 146.33719 73.43458 89.24498 9.14381 -68.10911 0.22994 7.88315 49.4779 -0.33227 -7.82341 -19.50133 -8.02893 -5.00896 -3.3903 52.91417 1.53806 3.28998 -23.98575 -9.09176 5.05605 3.44683
0.00795 0.00102 -0.0068 18.76173 -32.98364 -3.53777 55.01407 1.6955 2.5286 -4.38929 -8.78822 -0.44306 137.65057 -80.3932 -78.25199 16.501 84.8026 -4.21086 -7.06129 146.4034 73.43206 89.47582 9.15531 -68.02233 0.25951 7.74974 49.4155 -0.3232 -7.70414 -19.46114 -8.04077 -5.02227 -3.3967 52.85882 1.63084 3.79677 -23.987 -9.03322 5.01812 3.41956
